Sans_opsz10.ufo
<glyph name="exclam" format="2">
  <advance width="319"/>
  <unicode hex="0021"/>
  <outline>
    <contour>
      <point x="201" y="694" type="line"/>
      <point x="118" y="694" type="line"/>
      <point x="126" y="218" type="line"/>
      <point x="126" y="175" type="line"/>
      <point x="193" y="175" type="line"/>
      <point x="193" y="218" type="line"/>
    </contour>
    <contour>
      <point x="118" y="0" type="line"/>
      <point x="201" y="0" type="line"/>
      <point x="201" y="83" type="line"/>
      <point x="118" y="83" type="line"/>
    </contour>
  </outline>
</glyph>
<glyph name="numbersign" format="2">
  <advance width="833"/>
  <unicode hex="0023"/>
  <outline>
    <contour>
      <point x="518" y="130" type="line"/>
      <point x="743" y="130" type="line" smooth="yes"/>
      <point x="757" y="130"/>
      <point x="776" y="130"/>
      <point x="776" y="150" type="curve" smooth="yes"/>
      <point x="776" y="170"/>
      <point x="757" y="170"/>
      <point x="742" y="170" type="curve" smooth="yes"/>
      <point x="530" y="170" type="line"/>
      <point x="572" y="330" type="line"/>
      <point x="742" y="330" type="line" smooth="yes"/>
      <point x="757" y="330"/>
      <point x="776" y="330"/>
      <point x="776" y="350" type="curve" smooth="yes"/>
      <point x="776" y="370"/>
      <point x="757" y="370"/>
      <point x="743" y="370" type="curve" smooth="yes"/>
      <point x="584" y="370" type="line"/>
      <point x="661" y="656" type="line"/>
      <point x="662" y="658"/>
      <point x="665" y="670"/>
      <point x="665" y="674" type="curve" smooth="yes"/>
      <point x="665" y="685"/>
      <point x="656" y="694"/>
      <point x="645" y="694" type="curve" smooth="yes"/>
      <point x="629" y="694"/>
      <point x="626" y="681"/>
      <point x="623" y="670" type="curve" smooth="yes"/>
      <point x="543" y="370" type="line"/>
      <point x="355" y="370" type="line"/>
      <point x="432" y="656" type="line"/>
      <point x="433" y="658"/>
      <point x="436" y="670"/>
      <point x="436" y="674" type="curve" smooth="yes"/>
      <point x="436" y="685"/>
      <point x="427" y="694"/>
      <point x="416" y="694" type="curve" smooth="yes"/>
      <point x="400" y="694"/>
      <point x="397" y="681"/>
      <point x="394" y="670" type="curve" smooth="yes"/>
      <point x="314" y="370" type="line"/>
      <point x="89" y="370" type="line" smooth="yes"/>
      <point x="75" y="370"/>
      <point x="56" y="370"/>
      <point x="56" y="350" type="curve" smooth="yes"/>
      <point x="56" y="330"/>
      <point x="75" y="330"/>
      <point x="90" y="330" type="curve" smooth="yes"/>
      <point x="302" y="330" type="line"/>
      <point x="260" y="170" type="line"/>
      <point x="90" y="170" type="line" smooth="yes"/>
      <point x="75" y="170"/>
      <point x="56" y="170"/>
      <point x="56" y="150" type="curve" smooth="yes"/>
      <point x="56" y="130"/>
      <point x="75" y="130"/>
      <point x="89" y="130" type="curve" smooth="yes"/>
      <point x="248" y="130" type="line"/>
      <point x="171" y="-156" type="line"/>
      <point x="170" y="-158"/>
      <point x="167" y="-170"/>
      <point x="167" y="-174" type="curve" smooth="yes"/>
      <point x="167" y="-185"/>
      <point x="176" y="-194"/>
      <point x="187" y="-194" type="curve" smooth="yes"/>
      <point x="203" y="-194"/>
      <point x="206" y="-181"/>
      <point x="209" y="-170" type="curve" smooth="yes"/>
      <point x="289" y="130" type="line"/>
      <point x="477" y="130" type="line"/>
      <point x="400" y="-156" type="line"/>
      <point x="399" y="-158"/>
      <point x="396" y="-170"/>
      <point x="396" y="-174" type="curve" smooth="yes"/>
      <point x="396" y="-185"/>
      <point x="405" y="-194"/>
      <point x="416" y="-194" type="curve" smooth="yes"/>
      <point x="432" y="-194"/>
      <point x="435" y="-181"/>
      <point x="438" y="-170" type="curve" smooth="yes"/>
    </contour>
    <contour>
      <point x="301" y="170" type="line"/>
      <point x="343" y="330" type="line"/>
      <point x="531" y="330" type="line"/>
      <point x="489" y="170" type="line"/>
    </contour>
  </outline>
</glyph>
<glyph name="dollar" format="2">
  <advance width="500"/>
  <unicode hex="0024"/>
  <outline>
    <contour>
      <point x="279" y="640" type="line"/>
      <point x="341" y="634"/>
      <point x="381" y="610"/>
      <point x="415" y="583" type="curve"/>
      <point x="427" y="649" type="line"/>
      <point x="366" y="691"/>
      <point x="322" y="701"/>
      <point x="279" y="704" type="curve"/>
      <point x="279" y="750" type="line"/>
      <point x="221" y="750" type="line"/>
      <point x="221" y="703" type="line"/>
      <point x="109" y="683"/>
      <point x="56" y="593"/>
      <point x="56" y="513" type="curve" smooth="yes"/>
      <point x="56" y="469"/>
      <point x="75" y="356"/>
      <point x="221" y="322" type="curve"/>
      <point x="221" y="54" type="line"/>
      <point x="172" y="59"/>
      <point x="108" y="80"/>
      <point x="56" y="126" type="curve"/>
      <point x="44" y="58" type="line"/>
      <point x="69" y="40"/>
      <point x="128" y="-1"/>
      <point x="221" y="-10" type="curve"/>
      <point x="221" y="-56" type="line"/>
      <point x="279" y="-56" type="line"/>
      <point x="279" y="-8" type="line"/>
      <point x="379" y="9"/>
      <point x="443" y="99"/>
      <point x="443" y="195" type="curve" smooth="yes"/>
      <point x="443" y="278"/>
      <point x="393" y="376"/>
      <point x="279" y="399" type="curve"/>
    </contour>
    <contour>
      <point x="221" y="414" type="line"/>
      <point x="153" y="431"/>
      <point x="129" y="485"/>
      <point x="129" y="526" type="curve" smooth="yes"/>
      <point x="129" y="576"/>
      <point x="163" y="624"/>
      <point x="221" y="638" type="curve"/>
    </contour>
    <contour>
      <point x="279" y="308" type="line"/>
      <point x="333" y="293"/>
      <point x="370" y="241"/>
      <point x="370" y="182" type="curve" smooth="yes"/>
      <point x="370" y="131"/>
      <point x="341" y="75"/>
      <point x="279" y="57" type="curve"/>
    </contour>
  </outline>
</glyph>
<glyph name="parenleft" format="2">
  <advance width="388"/>
  <unicode hex="0028"/>
  <outline>
    <contour>
      <point x="271" y="750" type="line"/>
      <point x="113" y="611"/>
      <point x="79" y="403"/>
      <point x="79" y="250" type="curve" smooth="yes"/>
      <point x="79" y="-73"/>
      <point x="223" y="-206"/>
      <point x="271" y="-250" type="curve"/>
      <point x="332" y="-250" type="line"/>
      <point x="284" y="-202"/>
      <point x="157" y="-73"/>
      <point x="157" y="250" type="curve" smooth="yes"/>
      <point x="157" y="343"/>
      <point x="161" y="579"/>
      <point x="332" y="750" type="curve"/>
    </contour>
  </outline>
</glyph>
<glyph name="zero" format="2">
  <advance width="500"/>
  <unicode hex="0030"/>
  <outline>
    <contour>
      <point x="457" y="326" type="curve" smooth="yes"/>
      <point x="457" y="405"/>
      <point x="453" y="498"/>
      <point x="411" y="579" type="curve" smooth="yes"/>
      <point x="370" y="654"/>
      <point x="301" y="678"/>
      <point x="250" y="678" type="curve" smooth="yes"/>
      <point x="191" y="678"/>
      <point x="121" y="651"/>
      <point x="80" y="562" type="curve" smooth="yes"/>
      <point x="47" y="489"/>
      <point x="42" y="406"/>
      <point x="42" y="326" type="curve" smooth="yes"/>
      <point x="42" y="247"/>
      <point x="46" y="174"/>
      <point x="76" y="101" type="curve" smooth="yes"/>
      <point x="116" y="5"/>
      <point x="192" y="-22"/>
      <point x="249" y="-22" type="curve" smooth="yes"/>
      <point x="322" y="-22"/>
      <point x="385" y="19"/>
      <point x="417" y="88" type="curve" smooth="yes"/>
      <point x="447" y="153"/>
      <point x="457" y="219"/>
    </contour>
    <contour>
      <point x="250" y="39" type="curve" smooth="yes"/>
      <point x="198" y="39"/>
      <point x="157" y="77"/>
      <point x="137" y="149" type="curve" smooth="yes"/>
      <point x="121" y="206"/>
      <point x="120" y="260"/>
      <point x="120" y="338" type="curve" smooth="yes"/>
      <point x="120" y="401"/>
      <point x="120" y="461"/>
      <point x="137" y="516" type="curve" smooth="yes"/>
      <point x="143" y="535"/>
      <point x="168" y="617"/>
      <point x="249" y="617" type="curve" smooth="yes"/>
      <point x="327" y="617"/>
      <point x="353" y="541"/>
      <point x="360" y="523" type="curve" smooth="yes"/>
      <point x="379" y="467"/>
      <point x="379" y="400"/>
      <point x="379" y="338" type="curve" smooth="yes"/>
      <point x="379" y="272"/>
      <point x="379" y="209"/>
      <point x="361" y="146" type="curve" smooth="yes"/>
      <point x="335" y="55"/>
      <point x="282" y="39"/>
    </contour>
  </outline>
</glyph>
<glyph name="one" format="2">
  <advance width="500"/>
  <unicode hex="0031"/>
  <outline>
    <contour>
      <point x="299" y="678" type="line"/>
      <point x="279" y="678" type="line"/>
      <point x="220" y="617"/>
      <point x="137" y="614"/>
      <point x="89" y="612" type="curve"/>
      <point x="89" y="554" type="line"/>
      <point x="122" y="555"/>
      <point x="170" y="557"/>
      <point x="220" y="578" type="curve"/>
      <point x="220" y="58" type="line"/>
      <point x="95" y="58" type="line"/>
      <point x="95" y="0" type="line"/>
      <point x="424" y="0" type="line"/>
      <point x="424" y="58" type="line"/>
      <point x="299" y="58" type="line"/>
    </contour>
  </outline>
</glyph>
<glyph name="three" format="2">
  <advance width="500"/>
  <unicode hex="0033"/>
  <outline>
    <contour>
      <point x="92" y="514" type="line"/>
      <point x="121" y="584"/>
      <point x="186" y="620"/>
      <point x="247" y="620" type="curve" smooth="yes"/>
      <point x="299" y="620"/>
      <point x="348" y="590"/>
      <point x="348" y="526" type="curve" smooth="yes"/>
      <point x="348" y="465"/>
      <point x="307" y="406"/>
      <point x="246" y="392" type="curve"/>
      <point x="240" y="391"/>
      <point x="238" y="391"/>
      <point x="167" y="385" type="curve"/>
      <point x="167" y="324" type="line"/>
      <point x="238" y="324" type="line" smooth="yes"/>
      <point x="346" y="324"/>
      <point x="368" y="231"/>
      <point x="368" y="181" type="curve" smooth="yes"/>
      <point x="368" y="103"/>
      <point x="322" y="39"/>
      <point x="245" y="39" type="curve" smooth="yes"/>
      <point x="176" y="39"/>
      <point x="97" y="74"/>
      <point x="53" y="142" type="curve"/>
      <point x="42" y="82" type="line"/>
      <point x="115" y="-12"/>
      <point x="207" y="-22"/>
      <point x="247" y="-22" type="curve" smooth="yes"/>
      <point x="369" y="-22"/>
      <point x="457" y="75"/>
      <point x="457" y="180" type="curve" smooth="yes"/>
      <point x="457" y="271"/>
      <point x="387" y="333"/>
      <point x="319" y="354" type="curve"/>
      <point x="395" y="395"/>
      <point x="430" y="463"/>
      <point x="430" y="526" type="curve" smooth="yes"/>
      <point x="430" y="612"/>
      <point x="347" y="678"/>
      <point x="248" y="678" type="curve" smooth="yes"/>
      <point x="171" y="678"/>
      <point x="98" y="638"/>
      <point x="56" y="568" type="curve"/>
    </contour>
  </outline>
</glyph>
<glyph name="four" format="2">
  <advance width="500"/>
  <unicode hex="0034"/>
  <outline>
    <contour>
      <point x="372" y="171" type="line"/>
      <point x="471" y="171" type="line"/>
      <point x="471" y="232" type="line"/>
      <point x="372" y="232" type="line"/>
      <point x="372" y="656" type="line"/>
      <point x="281" y="656" type="line"/>
      <point x="28" y="232" type="line"/>
      <point x="28" y="171" type="line"/>
      <point x="293" y="171" type="line"/>
      <point x="293" y="0" type="line"/>
      <point x="372" y="0" type="line"/>
    </contour>
    <contour>
      <point x="106" y="232" type="line"/>
      <point x="158" y="318"/>
      <point x="299" y="555"/>
      <point x="299" y="612" type="curve"/>
      <point x="299" y="232" type="line"/>
    </contour>
  </outline>
</glyph>
<glyph name="five" format="2">
  <advance width="500"/>
  <unicode hex="0035"/>
  <outline>
    <contour>
      <point x="153" y="592" type="line"/>
      <point x="416" y="592" type="line"/>
      <point x="416" y="656" type="line"/>
      <point x="81" y="656" type="line"/>
      <point x="81" y="287" type="line"/>
      <point x="147" y="287" type="line"/>
      <point x="164" y="327"/>
      <point x="201" y="366"/>
      <point x="259" y="366" type="curve" smooth="yes"/>
      <point x="306" y="366"/>
      <point x="360" y="325"/>
      <point x="360" y="205" type="curve" smooth="yes"/>
      <point x="360" y="39"/>
      <point x="238" y="39"/>
      <point x="229" y="39" type="curve" smooth="yes"/>
      <point x="162" y="39"/>
      <point x="101" y="78"/>
      <point x="72" y="132" type="curve"/>
      <point x="39" y="76" type="line"/>
      <point x="80" y="19"/>
      <point x="149" y="-22"/>
      <point x="230" y="-22" type="curve" smooth="yes"/>
      <point x="349" y="-22"/>
      <point x="449" y="77"/>
      <point x="449" y="203" type="curve" smooth="yes"/>
      <point x="449" y="328"/>
      <point x="363" y="427"/>
      <point x="260" y="427" type="curve" smooth="yes"/>
      <point x="220" y="427"/>
      <point x="182" y="412"/>
      <point x="153" y="386" type="curve"/>
    </contour>
  </outline>
</glyph>
<glyph name="nine" format="2">
  <advance width="500"/>
  <unicode hex="0039"/>
  <outline>
    <contour>
      <point x="72" y="24" type="line"/>
      <point x="106" y="-1"/>
      <point x="143" y="-22"/>
      <point x="205" y="-22" type="curve" smooth="yes"/>
      <point x="336" y="-22"/>
      <point x="457" y="117"/>
      <point x="457" y="335" type="curve" smooth="yes"/>
      <point x="457" y="615"/>
      <point x="338" y="678"/>
      <point x="253" y="678" type="curve" smooth="yes"/>
      <point x="183" y="678"/>
      <point x="142" y="648"/>
      <point x="107" y="611" type="curve" smooth="yes"/>
      <point x="44" y="543"/>
      <point x="42" y="477"/>
      <point x="42" y="434" type="curve" smooth="yes"/>
      <point x="42" y="306"/>
      <point x="108" y="194"/>
      <point x="204" y="194" type="curve" smooth="yes"/>
      <point x="266" y="194"/>
      <point x="330" y="223"/>
      <point x="373" y="277" type="curve"/>
      <point x="362" y="116"/>
      <point x="285" y="39"/>
      <point x="206" y="39" type="curve" smooth="yes"/>
      <point x="172" y="39"/>
      <point x="139" y="47"/>
      <point x="103" y="77" type="curve"/>
    </contour>
    <contour>
      <point x="370" y="435" type="curve"/>
      <point x="371" y="428"/>
      <point x="371" y="418"/>
      <point x="371" y="411" type="curve" smooth="yes"/>
      <point x="371" y="329"/>
      <point x="322" y="255"/>
      <point x="243" y="255" type="curve" smooth="yes"/>
      <point x="196" y="255"/>
      <point x="168" y="278"/>
      <point x="147" y="315" type="curve" smooth="yes"/>
      <point x="125" y="354"/>
      <point x="124" y="391"/>
      <point x="124" y="434" type="curve" smooth="yes"/>
      <point x="124" y="478"/>
      <point x="125" y="519"/>
      <point x="153" y="563" type="curve" smooth="yes"/>
      <point x="173" y="592"/>
      <point x="201" y="620"/>
      <point x="253" y="620" type="curve" smooth="yes"/>
      <point x="351" y="620"/>
      <point x="368" y="484"/>
    </contour>
  </outline>
</glyph>
<glyph name="colon" format="2">
  <advance width="277"/>
  <unicode hex="003A"/>
  <outline>
    <contour>
      <point x="180" y="444" type="line"/>
      <point x="97" y="444" type="line"/>
      <point x="97" y="361" type="line"/>
      <point x="180" y="361" type="line"/>
    </contour>
    <contour>
      <point x="97" y="83" type="line"/>
      <point x="97" y="0" type="line"/>
      <point x="180" y="0" type="line"/>
      <point x="180" y="83" type="line"/>
    </contour>
  </outline>
</glyph>
<glyph name="semicolon" format="2">
  <advance width="277"/>
  <unicode hex="003B"/>
  <outline>
    <contour>
      <point x="180" y="444" type="line"/>
      <point x="97" y="444" type="line"/>
      <point x="97" y="361" type="line"/>
      <point x="180" y="361" type="line"/>
    </contour>
    <contour>
      <point x="97" y="-125" type="line"/>
      <point x="138" y="-125" type="line"/>
      <point x="180" y="1" type="line"/>
      <point x="180" y="83" type="line"/>
      <point x="97" y="83" type="line"/>
      <point x="97" y="0" type="line"/>
      <point x="122" y="0" type="line"/>
    </contour>
  </outline>
</glyph>
<glyph name="A" format="2">
  <advance width="666"/>
  <unicode hex="0041"/>
  <outline>
    <contour>
      <point x="28" y="0" type="line"/>
      <point x="102" y="0" type="line"/>
      <point x="179" y="204" type="line"/>
      <point x="470" y="204" type="line"/>
      <point x="546" y="0" type="line"/>
      <point x="638" y="0" type="line"/>
      <point x="377" y="694" type="line"/>
      <point x="289" y="694" type="line"/>
    </contour>
    <contour>
      <point x="200" y="260" type="line"/>
      <point x="286" y="500"/>
      <point x="317" y="585"/>
      <point x="324" y="622" type="curve"/>
      <point x="325" y="622" type="line"/>
      <point x="327" y="608"/>
      <point x="333.67124" y="582.88451"/>
      <point x="448" y="260" type="curve"/>
    </contour>
  </outline>
</glyph>
<glyph name="C" format="2">
  <advance width="639"/>
  <unicode hex="0043"/>
  <outline>
    <contour>
      <point x="582" y="114" type="line"/>
      <point x="523" y="75"/>
      <point x="489" y="54"/>
      <point x="390" y="54" type="curve" smooth="yes"/>
      <point x="246" y="54"/>
      <point x="156" y="204"/>
      <point x="156" y="348" type="curve" smooth="yes"/>
      <point x="156" y="484"/>
      <point x="239" y="641"/>
      <point x="392" y="641" type="curve" smooth="yes"/>
      <point x="463" y="641"/>
      <point x="508" y="624"/>
      <point x="563" y="589" type="curve"/>
      <point x="577" y="671" type="line"/>
      <point x="534" y="692"/>
      <point x="457" y="705"/>
      <point x="393" y="705" type="curve" smooth="yes"/>
      <point x="208" y="705"/>
      <point x="66" y="549"/>
      <point x="66" y="339" type="curve" smooth="yes"/>
      <point x="66" y="181"/>
      <point x="185" y="-11"/>
      <point x="393" y="-11" type="curve" smooth="yes"/>
      <point x="485" y="-11"/>
      <point x="523" y="5"/>
      <point x="588" y="45" type="curve"/>
    </contour>
  </outline>
</glyph>
<glyph name="E" format="2">
  <advance width="597"/>
  <unicode hex="0045"/>
  <outline>
    <contour>
      <point x="513" y="329" type="line"/>
      <point x="513" y="390" type="line"/>
      <point x="183" y="390" type="line"/>
      <point x="183" y="627" type="line"/>
      <point x="321" y="627" type="line" smooth="yes"/>
      <point x="333" y="627"/>
      <point x="345" y="626"/>
      <point x="357" y="626" type="curve" smooth="yes"/>
      <point x="540" y="626" type="line"/>
      <point x="540" y="691" type="line"/>
      <point x="94" y="691" type="line"/>
      <point x="94" y="0" type="line"/>
      <point x="554" y="0" type="line"/>
      <point x="554" y="71" type="line"/>
      <point x="428" y="71" type="line" smooth="yes"/>
      <point x="416" y="71"/>
      <point x="404" y="70"/>
      <point x="392" y="70" type="curve" smooth="yes"/>
      <point x="183" y="70" type="line"/>
      <point x="183" y="329" type="line"/>
    </contour>
  </outline>
</glyph>
<glyph name="F" format="2">
  <advance width="569"/>
  <unicode hex="0046"/>
  <outline>
    <contour>
      <point x="485" y="315" type="line"/>
      <point x="485" y="376" type="line"/>
      <point x="183" y="376" type="line"/>
      <point x="183" y="627" type="line"/>
      <point x="314" y="627" type="line" smooth="yes"/>
      <point x="326" y="627"/>
      <point x="338" y="626"/>
      <point x="350" y="626" type="curve" smooth="yes"/>
      <point x="526" y="626" type="line"/>
      <point x="526" y="691" type="line"/>
      <point x="94" y="691" type="line"/>
      <point x="94" y="0" type="line"/>
      <point x="183" y="0" type="line"/>
      <point x="183" y="315" type="line"/>
    </contour>
  </outline>
</glyph>
<glyph name="I" format="2">
  <advance width="277"/>
  <unicode hex="0049"/>
  <outline>
    <contour>
      <point x="183" y="694" type="line"/>
      <point x="94" y="694" type="line"/>
      <point x="94" y="0" type="line"/>
      <point x="183" y="0" type="line"/>
    </contour>
  </outline>
</glyph>
<glyph name="L" format="2">
  <advance width="541"/>
  <unicode hex="004C"/>
  <outline>
    <contour>
      <point x="183" y="694" type="line"/>
      <point x="94" y="694" type="line"/>
      <point x="94" y="0" type="line"/>
      <point x="499" y="0" type="line"/>
      <point x="499" y="66" type="line"/>
      <point x="410" y="65"/>
      <point x="321" y="64"/>
      <point x="232" y="64" type="curve" smooth="yes"/>
      <point x="183" y="64" type="line"/>
    </contour>
  </outline>
</glyph>
<glyph name="N" format="2">
  <advance width="708"/>
  <unicode hex="004E"/>
  <outline>
    <contour>
      <point x="96" y="0" type="line"/>
      <point x="174" y="0" type="line"/>
      <point x="174" y="623" type="line"/>
      <point x="175" y="623" type="line"/>
      <point x="194" y="582"/>
      <point x="236" y="497"/>
      <point x="242" y="486" type="curve" smooth="yes"/>
      <point x="487" y="0" type="line"/>
      <point x="611" y="0" type="line"/>
      <point x="611" y="694" type="line"/>
      <point x="533" y="694" type="line"/>
      <point x="533" y="71" type="line"/>
      <point x="532" y="71" type="line"/>
      <point x="513" y="112"/>
      <point x="471" y="197"/>
      <point x="465" y="208" type="curve" smooth="yes"/>
      <point x="220" y="694" type="line"/>
      <point x="96" y="694" type="line"/>
    </contour>
  </outline>
</glyph>
<glyph name="O" format="2">
  <advance width="736"/>
  <unicode hex="004F"/>
  <outline>
    <contour>
      <point x="679" y="345" type="curve" smooth="yes"/>
      <point x="679" y="555"/>
      <point x="534" y="716"/>
      <point x="368" y="716" type="curve" smooth="yes"/>
      <point x="198" y="716"/>
      <point x="56" y="553"/>
      <point x="56" y="345" type="curve" smooth="yes"/>
      <point x="56" y="133"/>
      <point x="204" y="-22"/>
      <point x="367" y="-22" type="curve" smooth="yes"/>
      <point x="534" y="-22"/>
      <point x="679" y="135"/>
    </contour>
    <contour>
      <point x="368" y="43" type="curve" smooth="yes"/>
      <point x="250" y="43"/>
      <point x="145" y="168"/>
      <point x="145" y="360" type="curve" smooth="yes"/>
      <point x="145" y="543"/>
      <point x="255" y="652"/>
      <point x="367" y="652" type="curve" smooth="yes"/>
      <point x="483" y="652"/>
      <point x="590" y="539"/>
      <point x="590" y="360" type="curve" smooth="yes"/>
      <point x="590" y="165"/>
      <point x="482" y="43"/>
    </contour>
  </outline>
</glyph>
<glyph name="R" format="2">
  <advance width="645"/>
  <unicode hex="0052"/>
  <outline>
    <contour>
      <point x="419" y="326" type="line"/>
      <point x="522" y="356"/>
      <point x="589" y="427"/>
      <point x="589" y="508" type="curve" smooth="yes"/>
      <point x="589" y="607"/>
      <point x="480" y="694"/>
      <point x="337" y="694" type="curve" smooth="yes"/>
      <point x="96" y="694" type="line"/>
      <point x="96" y="0" type="line"/>
      <point x="182" y="0" type="line"/>
      <point x="182" y="317" type="line"/>
      <point x="340" y="317" type="line"/>
      <point x="528" y="0" type="line"/>
      <point x="617" y="0" type="line"/>
    </contour>
    <contour>
      <point x="182" y="378" type="line"/>
      <point x="182" y="638" type="line"/>
      <point x="326" y="638" type="line" smooth="yes"/>
      <point x="442" y="638"/>
      <point x="508" y="579"/>
      <point x="508" y="508" type="curve" smooth="yes"/>
      <point x="508" y="437"/>
      <point x="444" y="378"/>
      <point x="326" y="378" type="curve" smooth="yes"/>
    </contour>
  </outline>
</glyph>
<glyph name="S" format="2">
  <advance width="555"/>
  <unicode hex="0053"/>
  <outline>
    <contour>
      <point x="465" y="666" type="line"/>
      <point x="410" y="699"/>
      <point x="355" y="716"/>
      <point x="282" y="716" type="curve" smooth="yes"/>
      <point x="143" y="716"/>
      <point x="56" y="618"/>
      <point x="56" y="519" type="curve" smooth="yes"/>
      <point x="56" y="476"/>
      <point x="70" y="434"/>
      <point x="110" y="392" type="curve" smooth="yes"/>
      <point x="152" y="347"/>
      <point x="196" y="335"/>
      <point x="255" y="321" type="curve" smooth="yes"/>
      <point x="340" y="300"/>
      <point x="350" y="297"/>
      <point x="378" y="272" type="curve" smooth="yes"/>
      <point x="398" y="255"/>
      <point x="420" y="222"/>
      <point x="420" y="179" type="curve" smooth="yes"/>
      <point x="420" y="113"/>
      <point x="365" y="47"/>
      <point x="274" y="47" type="curve" smooth="yes"/>
      <point x="233" y="47"/>
      <point x="143" y="57"/>
      <point x="59" y="128" type="curve"/>
      <point x="44" y="47" type="line"/>
      <point x="132" y="-8"/>
      <point x="212" y="-22"/>
      <point x="275" y="-22" type="curve" smooth="yes"/>
      <point x="407" y="-22"/>
      <point x="499" y="79"/>
      <point x="499" y="189" type="curve" smooth="yes"/>
      <point x="499" y="254"/>
      <point x="468" y="302"/>
      <point x="446" y="326" type="curve" smooth="yes"/>
      <point x="399" y="376"/>
      <point x="366" y="385"/>
      <point x="274" y="408" type="curve" smooth="yes"/>
      <point x="216" y="422"/>
      <point x="200" y="426"/>
      <point x="170" y="452" type="curve" smooth="yes"/>
      <point x="163" y="458"/>
      <point x="135" y="487"/>
      <point x="135" y="531" type="curve" smooth="yes"/>
      <point x="135" y="590"/>
      <point x="189" y="650"/>
      <point x="281" y="650" type="curve" smooth="yes"/>
      <point x="365" y="650"/>
      <point x="413" y="617"/>
      <point x="450" y="586" type="curve"/>
    </contour>
  </outline>
</glyph>
<glyph name="T" format="2">
  <advance width="680"/>
  <unicode hex="0054"/>
  <outline>
    <contour>
      <point x="296" y="0" type="line"/>
      <point x="385" y="0" type="line"/>
      <point x="385" y="623" type="line"/>
      <point x="644" y="623" type="line"/>
      <point x="644" y="688" type="line"/>
      <point x="36" y="688" type="line"/>
      <point x="36" y="623" type="line"/>
      <point x="296" y="623" type="line"/>
    </contour>
  </outline>
</glyph>
<glyph name="V" format="2">
  <advance width="666"/>
  <unicode hex="0056"/>
  <outline>
    <contour>
      <point x="652" y="694" type="line"/>
      <point x="574" y="694" type="line"/>
      <point x="441" y="352" type="line" smooth="yes"/>
      <point x="425" y="311"/>
      <point x="350" y="118"/>
      <point x="341" y="72" type="curve"/>
      <point x="340" y="72" type="line"/>
      <point x="332" y="112"/>
      <point x="289" y="222"/>
      <point x="280" y="246" type="curve" smooth="yes"/>
      <point x="107" y="694" type="line"/>
      <point x="14" y="694" type="line"/>
      <point x="287" y="0" type="line"/>
      <point x="379" y="0" type="line"/>
    </contour>
  </outline>
</glyph>
<glyph name="W" format="2">
  <advance width="944"/>
  <unicode hex="0057"/>
  <outline>
    <contour>
      <point x="929" y="694" type="line"/>
      <point x="857" y="694" type="line"/>
      <point x="766" y="380" type="line" smooth="yes"/>
      <point x="740" y="291"/>
      <point x="692" y="123"/>
      <point x="687" y="72" type="curve"/>
      <point x="686" y="72" type="line"/>
      <point x="686" y="73"/>
      <point x="680" y="125"/>
      <point x="614" y="353" type="curve" smooth="yes"/>
      <point x="516" y="694" type="line"/>
      <point x="435" y="694" type="line"/>
      <point x="345" y="382" type="line" smooth="yes"/>
      <point x="323" y="305"/>
      <point x="273" y="130"/>
      <point x="268" y="74" type="curve"/>
      <point x="267" y="74" type="line"/>
      <point x="263" y="114"/>
      <point x="236" y="212"/>
      <point x="228" y="245" type="curve" smooth="yes"/>
      <point x="100" y="694" type="line"/>
      <point x="14" y="694" type="line"/>
      <point x="217" y="0" type="line"/>
      <point x="298" y="0" type="line"/>
      <point x="398" y="347" type="line" smooth="yes"/>
      <point x="419" y="420"/>
      <point x="462" y="569"/>
      <point x="468" y="621" type="curve"/>
      <point x="469" y="621" type="line"/>
      <point x="473" y="591"/>
      <point x="497" y="496"/>
      <point x="524" y="401" type="curve" smooth="yes"/>
      <point x="639" y="0" type="line"/>
      <point x="726" y="0" type="line"/>
    </contour>
  </outline>
</glyph>
<glyph name="a" format="2">
  <advance width="480"/>
  <unicode hex="0061"/>
  <outline>
    <contour>
      <point x="399" y="289" type="line" smooth="yes"/>
      <point x="399" y="391"/>
      <point x="326" y="461"/>
      <point x="234" y="461" type="curve" smooth="yes"/>
      <point x="169" y="461"/>
      <point x="124" y="445"/>
      <point x="77" y="418" type="curve"/>
      <point x="83" y="352" type="line"/>
      <point x="135" y="389"/>
      <point x="185" y="402"/>
      <point x="234" y="402" type="curve" smooth="yes"/>
      <point x="281" y="402"/>
      <point x="321" y="362"/>
      <point x="321" y="288" type="curve" smooth="yes"/>
      <point x="321" y="245" type="line"/>
      <point x="171" y="243"/>
      <point x="44" y="201"/>
      <point x="44" y="113" type="curve" smooth="yes"/>
      <point x="44" y="70"/>
      <point x="71" y="-11"/>
      <point x="158" y="-11" type="curve" smooth="yes"/>
      <point x="172" y="-11"/>
      <point x="266" y="-9"/>
      <point x="324" y="36" type="curve"/>
      <point x="324" y="0" type="line"/>
      <point x="399" y="0" type="line"/>
    </contour>
    <contour>
      <point x="321" y="132" type="line" smooth="yes"/>
      <point x="321" y="113"/>
      <point x="321" y="88"/>
      <point x="287" y="69" type="curve" smooth="yes"/>
      <point x="258" y="51"/>
      <point x="220" y="50"/>
      <point x="209" y="50" type="curve" smooth="yes"/>
      <point x="161" y="50"/>
      <point x="116" y="73"/>
      <point x="116" y="115" type="curve" smooth="yes"/>
      <point x="116" y="185"/>
      <point x="278" y="192"/>
      <point x="321" y="194" type="curve"/>
    </contour>
  </outline>
</glyph>
<glyph name="b" format="2">
  <advance width="516"/>
  <unicode hex="0062"/>
  <outline>
    <contour>
      <point x="157" y="694" type="line"/>
      <point x="82" y="694" type="line"/>
      <point x="82" y="0" type="line"/>
      <point x="160" y="0" type="line"/>
      <point x="160" y="46" type="line"/>
      <point x="184" y="24"/>
      <point x="227" y="-11"/>
      <point x="294" y="-11" type="curve" smooth="yes"/>
      <point x="394" y="-11"/>
      <point x="480" y="89"/>
      <point x="480" y="223" type="curve" smooth="yes"/>
      <point x="480" y="347"/>
      <point x="412" y="455"/>
      <point x="318" y="455" type="curve" smooth="yes"/>
      <point x="279" y="455"/>
      <point x="217" y="445"/>
      <point x="157" y="396" type="curve"/>
    </contour>
    <contour>
      <point x="160" y="335" type="line"/>
      <point x="176" y="359"/>
      <point x="212" y="394"/>
      <point x="267" y="394" type="curve" smooth="yes"/>
      <point x="326" y="394"/>
      <point x="402" y="351"/>
      <point x="402" y="223" type="curve" smooth="yes"/>
      <point x="402" y="93"/>
      <point x="318" y="50"/>
      <point x="257" y="50" type="curve" smooth="yes"/>
      <point x="218" y="50"/>
      <point x="185" y="68"/>
      <point x="160" y="114" type="curve"/>
    </contour>
  </outline>
</glyph>
<glyph name="f" format="2">
  <advance width="305"/>
  <unicode hex="0066"/>
  <outline>
    <contour>
      <point x="176" y="386" type="line"/>
      <point x="286" y="386" type="line"/>
      <point x="286" y="444" type="line"/>
      <point x="173" y="444" type="line"/>
      <point x="173" y="563" type="line" smooth="yes"/>
      <point x="173" y="637"/>
      <point x="240" y="644"/>
      <point x="266" y="644" type="curve" smooth="yes"/>
      <point x="286" y="644"/>
      <point x="313" y="642"/>
      <point x="347" y="627" type="curve"/>
      <point x="347" y="694" type="line"/>
      <point x="335" y="697"/>
      <point x="304" y="705"/>
      <point x="267" y="705" type="curve" smooth="yes"/>
      <point x="173" y="705"/>
      <point x="101" y="634"/>
      <point x="101" y="534" type="curve" smooth="yes"/>
      <point x="101" y="444" type="line"/>
      <point x="27" y="444" type="line"/>
      <point x="27" y="386" type="line"/>
      <point x="101" y="386" type="line"/>
      <point x="101" y="0" type="line"/>
      <point x="176" y="0" type="line"/>
    </contour>
  </outline>
</glyph>
<glyph name="k" format="2">
  <advance width="488"/>
  <unicode hex="006B"/>
  <outline>
    <contour>
      <point x="281" y="272" type="line"/>
      <point x="449" y="444" type="line"/>
      <point x="359" y="444" type="line"/>
      <point x="156" y="236" type="line"/>
      <point x="156" y="694" type="line"/>
      <point x="84" y="694" type="line"/>
      <point x="84" y="0" type="line"/>
      <point x="153" y="0" type="line"/>
      <point x="153" y="141" type="line"/>
      <point x="233" y="224" type="line"/>
      <point x="389" y="0" type="line"/>
      <point x="471" y="0" type="line"/>
    </contour>
  </outline>
</glyph>
<glyph name="m" format="2">
  <advance width="794"/>
  <unicode hex="006D"/>
  <outline>
    <contour>
      <point x="713" y="298" type="line" smooth="yes"/>
      <point x="713" y="365"/>
      <point x="697" y="455"/>
      <point x="576" y="455" type="curve" smooth="yes"/>
      <point x="516" y="455"/>
      <point x="464" y="427"/>
      <point x="427" y="373" type="curve"/>
      <point x="401" y="449"/>
      <point x="331" y="455"/>
      <point x="299" y="455" type="curve" smooth="yes"/>
      <point x="227" y="455"/>
      <point x="180" y="414"/>
      <point x="153" y="378" type="curve"/>
      <point x="153" y="450" type="line"/>
      <point x="81" y="450" type="line"/>
      <point x="81" y="0" type="line"/>
      <point x="159" y="0" type="line"/>
      <point x="159" y="245" type="line" smooth="yes"/>
      <point x="159" y="313"/>
      <point x="186" y="394"/>
      <point x="260" y="394" type="curve" smooth="yes"/>
      <point x="353" y="394"/>
      <point x="358" y="329"/>
      <point x="358" y="291" type="curve" smooth="yes"/>
      <point x="358" y="0" type="line"/>
      <point x="436" y="0" type="line"/>
      <point x="436" y="245" type="line" smooth="yes"/>
      <point x="436" y="313"/>
      <point x="463" y="394"/>
      <point x="537" y="394" type="curve" smooth="yes"/>
      <point x="630" y="394"/>
      <point x="635" y="329"/>
      <point x="635" y="291" type="curve" smooth="yes"/>
      <point x="635" y="0" type="line"/>
      <point x="713" y="0" type="line"/>
    </contour>
  </outline>
</glyph>
<glyph name="s" format="2">
  <advance width="383"/>
  <unicode hex="0073"/>
  <outline>
    <contour>
      <point x="343" y="429" type="line"/>
      <point x="291" y="453"/>
      <point x="250" y="461"/>
      <point x="199" y="461" type="curve" smooth="yes"/>
      <point x="174" y="461"/>
      <point x="33" y="461"/>
      <point x="33" y="330" type="curve" smooth="yes"/>
      <point x="33" y="281"/>
      <point x="62" y="249"/>
      <point x="87" y="230" type="curve" smooth="yes"/>
      <point x="118" y="208"/>
      <point x="140" y="204"/>
      <point x="195" y="193" type="curve" smooth="yes"/>
      <point x="231" y="186"/>
      <point x="289" y="174"/>
      <point x="289" y="121" type="curve" smooth="yes"/>
      <point x="289" y="52"/>
      <point x="210" y="52"/>
      <point x="195" y="52" type="curve" smooth="yes"/>
      <point x="114" y="52"/>
      <point x="58" y="89"/>
      <point x="40" y="101" type="curve"/>
      <point x="28" y="33" type="line"/>
      <point x="60" y="17"/>
      <point x="115" y="-11"/>
      <point x="196" y="-11" type="curve" smooth="yes"/>
      <point x="214" y="-11"/>
      <point x="269" y="-11"/>
      <point x="312" y="21" type="curve" smooth="yes"/>
      <point x="343" y="45"/>
      <point x="360" y="85"/>
      <point x="360" y="128" type="curve" smooth="yes"/>
      <point x="360" y="183"/>
      <point x="323" y="217"/>
      <point x="321" y="220" type="curve"/>
      <point x="282" y="255"/>
      <point x="255" y="261"/>
      <point x="205" y="270" type="curve" smooth="yes"/>
      <point x="150" y="281"/>
      <point x="104" y="291"/>
      <point x="104" y="340" type="curve" smooth="yes"/>
      <point x="104" y="402"/>
      <point x="176" y="402"/>
      <point x="189" y="402" type="curve" smooth="yes"/>
      <point x="221" y="402"/>
      <point x="274" y="398"/>
      <point x="331" y="364" type="curve"/>
    </contour>
  </outline>
</glyph>
<glyph name="t" format="2">
  <advance width="361"/>
  <unicode hex="0074"/>
  <outline>
    <contour>
      <point x="175" y="386" type="line"/>
      <point x="316" y="386" type="line"/>
      <point x="316" y="444" type="line"/>
      <point x="175" y="444" type="line"/>
      <point x="175" y="571" type="line"/>
      <point x="106" y="571" type="line"/>
      <point x="106" y="444" type="line"/>
      <point x="19" y="444" type="line"/>
      <point x="19" y="386" type="line"/>
      <point x="103" y="386" type="line"/>
      <point x="103" y="119" type="line" smooth="yes"/>
      <point x="103" y="59"/>
      <point x="117" y="-11"/>
      <point x="186" y="-11" type="curve" smooth="yes"/>
      <point x="256" y="-11"/>
      <point x="307" y="14"/>
      <point x="332" y="27" type="curve"/>
      <point x="316" y="86" type="line"/>
      <point x="290" y="65"/>
      <point x="258" y="53"/>
      <point x="226" y="53" type="curve" smooth="yes"/>
      <point x="189" y="53"/>
      <point x="175" y="83"/>
      <point x="175" y="136" type="curve" smooth="yes"/>
    </contour>
  </outline>
</glyph>
<glyph name="u" format="2">
  <advance width="516"/>
  <unicode hex="0075"/>
  <outline>
    <contour>
      <point x="435" y="444" type="line"/>
      <point x="357" y="444" type="line"/>
      <point x="357" y="154" type="line" smooth="yes"/>
      <point x="357" y="79"/>
      <point x="301" y="44"/>
      <point x="237" y="44" type="curve" smooth="yes"/>
      <point x="166" y="44"/>
      <point x="159" y="70"/>
      <point x="159" y="113" type="curve" smooth="yes"/>
      <point x="159" y="444" type="line"/>
      <point x="81" y="444" type="line"/>
      <point x="81" y="109" type="line" smooth="yes"/>
      <point x="81" y="37"/>
      <point x="104" y="-11"/>
      <point x="187" y="-11" type="curve" smooth="yes"/>
      <point x="240" y="-11"/>
      <point x="311" y="5"/>
      <point x="360" y="48" type="curve"/>
      <point x="360" y="0" type="line"/>
      <point x="435" y="0" type="line"/>
    </contour>
  </outline>
</glyph>
<glyph name="v" format="2">
  <advance width="461"/>
  <unicode hex="0076"/>
  <outline>
    <contour>
      <point x="446" y="444" type="line"/>
      <point x="371" y="444" type="line"/>
      <point x="292" y="236" type="line" smooth="yes"/>
      <point x="271" y="181"/>
      <point x="240" y="100"/>
      <point x="232" y="53" type="curve"/>
      <point x="231" y="53" type="line"/>
      <point x="225" y="89"/>
      <point x="199" y="158"/>
      <point x="189" y="185" type="curve" smooth="yes"/>
      <point x="92" y="444" type="line"/>
      <point x="14" y="444" type="line"/>
      <point x="186" y="0" type="line"/>
      <point x="274" y="0" type="line"/>
    </contour>
  </outline>
</glyph>
<glyph name="x" format="2">
  <advance width="461"/>
  <unicode hex="0078"/>
  <outline>
    <contour>
      <point x="260" y="229" type="line"/>
      <point x="443" y="444" type="line"/>
      <point x="361" y="444" type="line"/>
      <point x="227" y="279" type="line"/>
      <point x="89" y="444" type="line"/>
      <point x="6" y="444" type="line"/>
      <point x="194" y="229" type="line"/>
      <point x="0" y="0" type="line"/>
      <point x="82" y="0" type="line"/>
      <point x="227" y="188" type="line"/>
      <point x="377" y="0" type="line"/>
      <point x="460" y="0" type="line"/>
    </contour>
  </outline>
</glyph>
<glyph name="y" format="2">
  <advance width="461"/>
  <unicode hex="0079"/>
  <outline>
    <contour>
      <point x="446" y="444" type="line"/>
      <point x="371" y="444" type="line"/>
      <point x="241" y="126"/>
      <point x="239" y="80"/>
      <point x="238" y="57" type="curve"/>
      <point x="237" y="57" type="line"/>
      <point x="231" y="124"/>
      <point x="150.90583" y="309.95873"/>
      <point x="93" y="444" type="curve"/>
      <point x="14" y="444" type="line"/>
      <point x="208" y="0" type="line"/>
      <point x="180" y="-71" type="line" smooth="yes"/>
      <point x="149" y="-149"/>
      <point x="129" y="-148"/>
      <point x="115" y="-148" type="curve" smooth="yes"/>
      <point x="99" y="-148"/>
      <point x="67" y="-144"/>
      <point x="37" y="-132" type="curve"/>
      <point x="43" y="-197" type="line"/>
      <point x="65" y="-202"/>
      <point x="93" y="-205"/>
      <point x="115" y="-205" type="curve" smooth="yes"/>
      <point x="150" y="-205"/>
      <point x="187" y="-193"/>
      <point x="228" y="-91" type="curve" smooth="yes"/>
    </contour>
  </outline>
</glyph>
<glyph name="acute" format="2">
  <advance width="500"/>
  <unicode hex="00B4"/>
  <outline>
    <contour>
      <point x="416" y="694" type="line"/>
      <point x="338" y="694" type="line"/>
      <point x="205" y="527" type="line"/>
      <point x="266" y="527" type="line"/>
    </contour>
  </outline>
</glyph>
<glyph name="cedilla" format="2">
  <advance width="444"/>
  <unicode hex="00B8"/>
  <outline>
    <contour>
      <point x="280" y="-24" type="line"/>
      <point x="219" y="-24" type="line"/>
      <point x="145" y="-192" type="line"/>
      <point x="214" y="-192" type="line"/>
    </contour>
  </outline>
</glyph>
<glyph name="germandbls" format="2">
  <advance width="480"/>
  <unicode hex="00DF"/>
  <outline>
    <contour>
      <point x="328" y="411" type="curve"/>
      <point x="394" y="448"/>
      <point x="424" y="506"/>
      <point x="424" y="558" type="curve" smooth="yes"/>
      <point x="424" y="641"/>
      <point x="346" y="705"/>
      <point x="253" y="705" type="curve" smooth="yes"/>
      <point x="173" y="705"/>
      <point x="82" y="654"/>
      <point x="82" y="552" type="curve" smooth="yes"/>
      <point x="82" y="0" type="line"/>
      <point x="157" y="0" type="line"/>
      <point x="157" y="551" type="line" smooth="yes"/>
      <point x="157" y="638"/>
      <point x="231" y="644"/>
      <point x="252" y="644" type="curve" smooth="yes"/>
      <point x="311" y="644"/>
      <point x="347" y="607"/>
      <point x="347" y="559" type="curve" smooth="yes"/>
      <point x="347" y="505"/>
      <point x="306" y="445"/>
      <point x="213" y="444" type="curve"/>
      <point x="213" y="383" type="line"/>
      <point x="316" y="380"/>
      <point x="375" y="284"/>
      <point x="375" y="179" type="curve" smooth="yes"/>
      <point x="375" y="97"/>
      <point x="330" y="50"/>
      <point x="275" y="50" type="curve" smooth="yes"/>
      <point x="265" y="50"/>
      <point x="237" y="52"/>
      <point x="208" y="65" type="curve"/>
      <point x="191" y="20" type="line" smooth="yes"/>
      <point x="188" y="12"/>
      <point x="187" y="10"/>
      <point x="187" y="9" type="curve" smooth="yes"/>
      <point x="187" y="4"/>
      <point x="233" y="-11"/>
      <point x="276" y="-11" type="curve" smooth="yes"/>
      <point x="371" y="-11"/>
      <point x="452" y="70"/>
      <point x="452" y="179" type="curve" smooth="yes"/>
      <point x="452" y="258"/>
      <point x="417" y="356"/>
    </contour>
  </outline>
</glyph>
<glyph name="ae" format="2">
  <advance width="722"/>
  <unicode hex="00E6"/>
  <outline>
    <contour>
      <point x="693" y="219" type="line"/>
      <point x="693" y="254"/>
      <point x="693" y="461"/>
      <point x="527" y="461" type="curve" smooth="yes"/>
      <point x="473" y="461"/>
      <point x="416" y="434"/>
      <point x="375" y="384" type="curve"/>
      <point x="345" y="432"/>
      <point x="291" y="461"/>
      <point x="234" y="461" type="curve" smooth="yes"/>
      <point x="170" y="461"/>
      <point x="124" y="445"/>
      <point x="77" y="418" type="curve"/>
      <point x="83" y="352" type="line"/>
      <point x="131" y="386"/>
      <point x="178" y="402"/>
      <point x="235" y="402" type="curve" smooth="yes"/>
      <point x="280" y="402"/>
      <point x="322" y="364"/>
      <point x="322" y="288" type="curve" smooth="yes"/>
      <point x="322" y="247" type="line"/>
      <point x="265" y="244"/>
      <point x="47" y="234"/>
      <point x="47" y="114" type="curve" smooth="yes"/>
      <point x="47" y="81"/>
      <point x="65" y="-11"/>
      <point x="161" y="-11" type="curve" smooth="yes"/>
      <point x="189" y="-11"/>
      <point x="333" y="-8"/>
      <point x="380" y="66" type="curve"/>
      <point x="444" y="-8"/>
      <point x="518" y="-11"/>
      <point x="543" y="-11" type="curve" smooth="yes"/>
      <point x="591" y="-11"/>
      <point x="644" y="5"/>
      <point x="688" y="41" type="curve"/>
      <point x="682" y="106" type="line"/>
      <point x="629" y="57"/>
      <point x="572" y="50"/>
      <point x="544" y="50" type="curve" smooth="yes"/>
      <point x="473" y="50"/>
      <point x="405" y="112"/>
      <point x="400" y="219" type="curve"/>
    </contour>
    <contour>
      <point x="405" y="274" type="line"/>
      <point x="422" y="351"/>
      <point x="474" y="400"/>
      <point x="528" y="400" type="curve" smooth="yes"/>
      <point x="559" y="400"/>
      <point x="619" y="384"/>
      <point x="634" y="274" type="curve"/>
    </contour>
    <contour>
      <point x="323" y="191" type="curve"/>
      <point x="324" y="184"/>
      <point x="327" y="139"/>
      <point x="327" y="127" type="curve" smooth="yes"/>
      <point x="327" y="50"/>
      <point x="226" y="50"/>
      <point x="211" y="50" type="curve" smooth="yes"/>
      <point x="157" y="50"/>
      <point x="119" y="78"/>
      <point x="119" y="115" type="curve" smooth="yes"/>
      <point x="119" y="183"/>
      <point x="282" y="191"/>
    </contour>
  </outline>
</glyph>
<glyph name="oslash" format="2">
  <advance width="500"/>
  <unicode hex="00F8"/>
  <outline>
    <contour>
      <point x="456" y="527" type="line"/>
      <point x="403" y="557" type="line"/>
      <point x="338" y="441" type="line"/>
      <point x="314" y="452"/>
      <point x="280" y="461"/>
      <point x="250" y="461" type="curve" smooth="yes"/>
      <point x="129" y="461"/>
      <point x="32" y="352"/>
      <point x="32" y="220" type="curve" smooth="yes"/>
      <point x="32" y="118"/>
      <point x="87" y="65"/>
      <point x="112" y="41" type="curve"/>
      <point x="43" y="-82" type="line"/>
      <point x="96" y="-112" type="line"/>
      <point x="163" y="8" type="line"/>
      <point x="194" y="-6"/>
      <point x="224" y="-11"/>
      <point x="249" y="-11" type="curve" smooth="yes"/>
      <point x="367" y="-11"/>
      <point x="467" y="89"/>
      <point x="467" y="220" type="curve" smooth="yes"/>
      <point x="467" y="296"/>
      <point x="435" y="363"/>
      <point x="388" y="406" type="curve"/>
    </contour>
    <contour>
      <point x="144" y="99" type="line"/>
      <point x="108" y="145"/>
      <point x="107" y="199"/>
      <point x="107" y="220" type="curve" smooth="yes"/>
      <point x="107" y="338"/>
      <point x="175" y="400"/>
      <point x="250" y="400" type="curve" smooth="yes"/>
      <point x="270" y="400"/>
      <point x="289" y="396"/>
      <point x="307" y="387" type="curve"/>
    </contour>
    <contour>
      <point x="355" y="347" type="line"/>
      <point x="371" y="326"/>
      <point x="392" y="284"/>
      <point x="392" y="220" type="curve" smooth="yes"/>
      <point x="392" y="105"/>
      <point x="322" y="50"/>
      <point x="249" y="50" type="curve" smooth="yes"/>
      <point x="230" y="50"/>
      <point x="211" y="53"/>
      <point x="194" y="61" type="curve"/>
    </contour>
  </outline>
</glyph>
<glyph name="oe" format="2">
  <advance width="777"/>
  <unicode hex="0153"/>
  <outline>
    <contour>
      <point x="749" y="219" type="line"/>
      <point x="749" y="306"/>
      <point x="727" y="461"/>
      <point x="583" y="461" type="curve" smooth="yes"/>
      <point x="506" y="461"/>
      <point x="445" y="410"/>
      <point x="415" y="362" type="curve"/>
      <point x="351" y="457"/>
      <point x="267" y="461"/>
      <point x="241" y="461" type="curve" smooth="yes"/>
      <point x="127" y="461"/>
      <point x="30" y="357"/>
      <point x="30" y="225" type="curve" smooth="yes"/>
      <point x="30" y="92"/>
      <point x="127" y="-11"/>
      <point x="241" y="-11" type="curve" smooth="yes"/>
      <point x="280" y="-11"/>
      <point x="355" y="0"/>
      <point x="417" y="90" type="curve"/>
      <point x="454" y="32"/>
      <point x="521" y="-11"/>
      <point x="598" y="-11" type="curve" smooth="yes"/>
      <point x="665" y="-11"/>
      <point x="716" y="18"/>
      <point x="744" y="41" type="curve"/>
      <point x="738" y="106" type="line"/>
      <point x="692" y="63"/>
      <point x="638" y="50"/>
      <point x="600" y="50" type="curve" smooth="yes"/>
      <point x="525" y="50"/>
      <point x="460" y="115"/>
      <point x="455" y="219" type="curve"/>
    </contour>
    <contour>
      <point x="460" y="274" type="line"/>
      <point x="475" y="346"/>
      <point x="526" y="400"/>
      <point x="583" y="400" type="curve" smooth="yes"/>
      <point x="635" y="400"/>
      <point x="678" y="361"/>
      <point x="690" y="274" type="curve"/>
    </contour>
    <contour>
      <point x="241" y="50" type="curve" smooth="yes"/>
      <point x="170" y="50"/>
      <point x="102" y="110"/>
      <point x="102" y="230" type="curve" smooth="yes"/>
      <point x="102" y="345"/>
      <point x="171" y="400"/>
      <point x="241" y="400" type="curve" smooth="yes"/>
      <point x="306" y="400"/>
      <point x="377" y="351"/>
      <point x="377" y="230" type="curve" smooth="yes"/>
      <point x="377" y="107"/>
      <point x="309" y="50"/>
    </contour>
  </outline>
</glyph>
<glyph name="caron" format="2">
  <advance width="500"/>
  <unicode hex="02C7"/>
  <outline>
    <contour>
      <point x="422" y="654" type="line"/>
      <point x="361" y="654" type="line"/>
      <point x="250" y="531" type="line"/>
      <point x="138" y="654" type="line"/>
      <point x="77" y="654" type="line"/>
      <point x="218" y="487" type="line"/>
      <point x="281" y="487" type="line"/>
    </contour>
  </outline>
</glyph>
<glyph name="hungarumlaut" format="2">
  <advance width="500"/>
  <unicode hex="02DD"/>
  <outline>
    <contour>
      <point x="249" y="694" type="line"/>
      <point x="171" y="694" type="line"/>
      <point x="108" y="527" type="line"/>
      <point x="169" y="527" type="line"/>
    </contour>
    <contour>
      <point x="416" y="694" type="line"/>
      <point x="338" y="694" type="line"/>
      <point x="275" y="527" type="line"/>
      <point x="336" y="527" type="line"/>
    </contour>
  </outline>
</glyph>
<glyph name="Gamma" format="2">
  <advance width="541"/>
  <unicode hex="0393"/>
  <outline>
    <contour>
      <point x="301" y="627" type="line" smooth="yes"/>
      <point x="313" y="627"/>
      <point x="325" y="626"/>
      <point x="337" y="626" type="curve" smooth="yes"/>
      <point x="499" y="626" type="line"/>
      <point x="499" y="691" type="line"/>
      <point x="94" y="691" type="line"/>
      <point x="94" y="0" type="line"/>
      <point x="183" y="0" type="line"/>
      <point x="183" y="627" type="line"/>
    </contour>
  </outline>
</glyph>
<glyph name="Theta" format="2">
  <advance width="777"/>
  <unicode hex="0398"/>
  <outline>
    <contour>
      <point x="721" y="345" type="curve" smooth="yes"/>
      <point x="721" y="553"/>
      <point x="569" y="716"/>
      <point x="389" y="716" type="curve" smooth="yes"/>
      <point x="206" y="716"/>
      <point x="56" y="550"/>
      <point x="56" y="345" type="curve" smooth="yes"/>
      <point x="56" y="134"/>
      <point x="212" y="-22"/>
      <point x="388" y="-22" type="curve" smooth="yes"/>
      <point x="568" y="-22"/>
      <point x="721" y="137"/>
    </contour>
    <contour>
      <point x="389" y="40" type="curve" smooth="yes"/>
      <point x="256" y="40"/>
      <point x="139" y="161"/>
      <point x="139" y="345" type="curve" smooth="yes"/>
      <point x="139" y="531"/>
      <point x="258" y="655"/>
      <point x="388" y="655" type="curve" smooth="yes"/>
      <point x="522" y="655"/>
      <point x="638" y="528"/>
      <point x="638" y="345" type="curve" smooth="yes"/>
      <point x="638" y="158"/>
      <point x="517" y="40"/>
    </contour>
    <contour>
      <point x="196" y="389" type="line"/>
      <point x="196" y="306" type="line"/>
      <point x="581" y="306" type="line"/>
      <point x="581" y="389" type="line"/>
    </contour>
  </outline>
</glyph>
<glyph name="Lambda" format="2">
  <advance width="611"/>
  <unicode hex="039B"/>
  <outline>
    <contour>
      <point x="349" y="694" type="line"/>
      <point x="261" y="694" type="line"/>
      <point x="28" y="0" type="line"/>
      <point x="102" y="0" type="line"/>
      <point x="200" y="296" type="line" smooth="yes"/>
      <point x="202" y="302"/>
      <point x="288" y="559"/>
      <point x="294" y="621" type="curve"/>
      <point x="295" y="621" type="line"/>
      <point x="300" y="588"/>
      <point x="320" y="518"/>
      <point x="336" y="464" type="curve" smooth="yes"/>
      <point x="353" y="411"/>
      <point x="369" y="357"/>
      <point x="387" y="304" type="curve" smooth="yes"/>
      <point x="488" y="0" type="line"/>
      <point x="582" y="0" type="line"/>
    </contour>
  </outline>
</glyph>
<glyph name="Xi" format="2">
  <advance width="666"/>
  <unicode hex="039E"/>
  <outline>
    <contour>
      <point x="172" y="613" type="line" smooth="yes"/>
      <point x="225" y="613"/>
      <point x="280" y="614"/>
      <point x="333" y="614" type="curve" smooth="yes"/>
      <point x="386" y="614"/>
      <point x="441" y="613"/>
      <point x="494" y="613" type="curve" smooth="yes"/>
      <point x="619" y="613" type="line"/>
      <point x="619" y="688" type="line"/>
      <point x="47" y="688" type="line"/>
      <point x="47" y="613" type="line"/>
    </contour>
    <contour>
      <point x="496" y="75" type="line" smooth="yes"/>
      <point x="442" y="75"/>
      <point x="387" y="74"/>
      <point x="333" y="74" type="curve" smooth="yes"/>
      <point x="279" y="74"/>
      <point x="224" y="75"/>
      <point x="170" y="75" type="curve" smooth="yes"/>
      <point x="42" y="75" type="line"/>
      <point x="42" y="0" type="line"/>
      <point x="624" y="0" type="line"/>
      <point x="624" y="75" type="line"/>
    </contour>
    <contour>
      <point x="111" y="395" type="line"/>
      <point x="111" y="321" type="line"/>
      <point x="555" y="321" type="line"/>
      <point x="555" y="395" type="line"/>
    </contour>
  </outline>
</glyph>
<glyph name="Pi" format="2">
  <advance width="708"/>
  <unicode hex="03A0"/>
  <outline>
    <contour>
      <point x="613" y="691" type="line"/>
      <point x="94" y="691" type="line"/>
      <point x="94" y="0" type="line"/>
      <point x="183" y="0" type="line"/>
      <point x="183" y="630" type="line"/>
      <point x="524" y="630" type="line"/>
      <point x="524" y="0" type="line"/>
      <point x="613" y="0" type="line"/>
    </contour>
  </outline>
</glyph>
<glyph name="Sigma" format="2">
  <advance width="722"/>
  <unicode hex="03A3"/>
  <outline>
    <contour>
      <point x="391" y="347" type="line"/>
      <point x="169" y="630" type="line"/>
      <point x="371" y="630" type="line" smooth="yes"/>
      <point x="383" y="630"/>
      <point x="395" y="629"/>
      <point x="407" y="629" type="curve" smooth="yes"/>
      <point x="665" y="629" type="line"/>
      <point x="665" y="694" type="line"/>
      <point x="56" y="694" type="line"/>
      <point x="56" y="630" type="line"/>
      <point x="287" y="335" type="line"/>
      <point x="56" y="0" type="line"/>
      <point x="665" y="0" type="line"/>
      <point x="665" y="70" type="line"/>
      <point x="425" y="70" type="line" smooth="yes"/>
      <point x="413" y="70"/>
      <point x="401" y="69"/>
      <point x="389" y="69" type="curve" smooth="yes"/>
      <point x="199" y="69" type="line"/>
    </contour>
  </outline>
</glyph>
<glyph name="Upsilon" format="2">
  <advance width="777"/>
  <unicode hex="03A5"/>
  <outline>
    <contour>
      <point x="433" y="380" type="line" smooth="yes"/>
      <point x="433" y="603"/>
      <point x="494" y="649"/>
      <point x="561" y="649" type="curve" smooth="yes"/>
      <point x="609" y="649"/>
      <point x="641" y="610"/>
      <point x="643" y="555" type="curve"/>
      <point x="721" y="555" type="line"/>
      <point x="719" y="656"/>
      <point x="641" y="716"/>
      <point x="563" y="716" type="curve" smooth="yes"/>
      <point x="448" y="716"/>
      <point x="404" y="604"/>
      <point x="389" y="494" type="curve"/>
      <point x="388" y="494" type="line"/>
      <point x="376" y="573"/>
      <point x="345" y="716"/>
      <point x="214" y="716" type="curve" smooth="yes"/>
      <point x="136" y="716"/>
      <point x="58" y="655"/>
      <point x="56" y="555" type="curve"/>
      <point x="134" y="555" type="line"/>
      <point x="136" y="609"/>
      <point x="168" y="649"/>
      <point x="216" y="649" type="curve" smooth="yes"/>
      <point x="289" y="649"/>
      <point x="344" y="592"/>
      <point x="344" y="380" type="curve" smooth="yes"/>
      <point x="344" y="0" type="line"/>
      <point x="433" y="0" type="line"/>
    </contour>
  </outline>
</glyph>
<glyph name="Phi" format="2">
  <advance width="722"/>
  <unicode hex="03A6"/>
  <outline>
    <contour>
      <point x="399" y="694" type="line"/>
      <point x="316" y="694" type="line"/>
      <point x="316" y="587" type="line"/>
      <point x="170" y="572"/>
      <point x="56" y="468"/>
      <point x="56" y="347" type="curve" smooth="yes"/>
      <point x="56" y="225"/>
      <point x="171" y="122"/>
      <point x="316" y="107" type="curve"/>
      <point x="316" y="0" type="line"/>
      <point x="399" y="0" type="line"/>
      <point x="399" y="106" type="line"/>
      <point x="565" y="124"/>
      <point x="665" y="235"/>
      <point x="665" y="347" type="curve" smooth="yes"/>
      <point x="665" y="459"/>
      <point x="565" y="570"/>
      <point x="399" y="588" type="curve"/>
    </contour>
    <contour>
      <point x="316" y="168" type="line"/>
      <point x="210" y="183"/>
      <point x="142" y="256"/>
      <point x="142" y="347" type="curve" smooth="yes"/>
      <point x="142" y="438"/>
      <point x="211" y="511"/>
      <point x="316" y="526" type="curve"/>
    </contour>
    <contour>
      <point x="399" y="527" type="line"/>
      <point x="516" y="511"/>
      <point x="579" y="433"/>
      <point x="579" y="347" type="curve" smooth="yes"/>
      <point x="579" y="260"/>
      <point x="515" y="182"/>
      <point x="399" y="167" type="curve"/>
    </contour>
  </outline>
</glyph>
<glyph name="Psi" format="2">
  <advance width="777"/>
  <unicode hex="03A8"/>
  <outline>
    <contour>
      <point x="427" y="694" type="line"/>
      <point x="344" y="694" type="line"/>
      <point x="344" y="170" type="line"/>
      <point x="208" y="206"/>
      <point x="208" y="369"/>
      <point x="208" y="422" type="curve" smooth="yes"/>
      <point x="208" y="571"/>
      <point x="192" y="613"/>
      <point x="129" y="613" type="curve" smooth="yes"/>
      <point x="56" y="613" type="line"/>
      <point x="56" y="552" type="line"/>
      <point x="119" y="548"/>
      <point x="125" y="474"/>
      <point x="125" y="404" type="curve" smooth="yes"/>
      <point x="126" y="291"/>
      <point x="165" y="133"/>
      <point x="344" y="107" type="curve"/>
      <point x="344" y="0" type="line"/>
      <point x="427" y="0" type="line"/>
      <point x="427" y="107" type="line"/>
      <point x="650" y="137"/>
      <point x="652" y="360"/>
      <point x="652" y="426" type="curve" smooth="yes"/>
      <point x="652" y="474"/>
      <point x="661" y="548"/>
      <point x="721" y="552" type="curve"/>
      <point x="721" y="613" type="line"/>
      <point x="648" y="613" type="line" smooth="yes"/>
      <point x="605" y="613"/>
      <point x="569" y="603"/>
      <point x="569" y="440" type="curve" smooth="yes"/>
      <point x="569" y="363"/>
      <point x="568" y="205"/>
      <point x="427" y="170" type="curve"/>
    </contour>
  </outline>
</glyph>
<glyph name="quoteright" format="2">
  <advance width="277"/>
  <unicode hex="2019"/>
  <outline>
    <contour>
      <point x="180" y="612" type="line"/>
      <point x="180" y="694" type="line"/>
      <point x="97" y="694" type="line"/>
      <point x="97" y="611" type="line"/>
      <point x="122" y="611" type="line"/>
      <point x="97" y="486" type="line"/>
      <point x="138" y="486" type="line"/>
    </contour>
  </outline>
</glyph>
<glyph name="Omega" format="2">
  <advance width="722"/>
  <unicode hex="2126"/>
  <outline>
    <contour>
      <point x="677" y="71" type="line"/>
      <point x="592" y="71" type="line" smooth="yes"/>
      <point x="580" y="71"/>
      <point x="568" y="70"/>
      <point x="556" y="70" type="curve" smooth="yes"/>
      <point x="503" y="70" type="line"/>
      <point x="517" y="126"/>
      <point x="545" y="174"/>
      <point x="581" y="235" type="curve" smooth="yes"/>
      <point x="622" y="304"/>
      <point x="665" y="378"/>
      <point x="665" y="462" type="curve" smooth="yes"/>
      <point x="665" y="602"/>
      <point x="530" y="716"/>
      <point x="361" y="716" type="curve" smooth="yes"/>
      <point x="188" y="716"/>
      <point x="56" y="600"/>
      <point x="56" y="462" type="curve" smooth="yes"/>
      <point x="56" y="378"/>
      <point x="97" y="307"/>
      <point x="149" y="219" type="curve" smooth="yes"/>
      <point x="186" y="156"/>
      <point x="207" y="115"/>
      <point x="218" y="70" type="curve"/>
      <point x="165" y="70" type="line" smooth="yes"/>
      <point x="153" y="70"/>
      <point x="141" y="71"/>
      <point x="129" y="71" type="curve" smooth="yes"/>
      <point x="44" y="71" type="line"/>
      <point x="44" y="0" type="line"/>
      <point x="289" y="0" type="line"/>
      <point x="288" y="50"/>
      <point x="280" y="103"/>
      <point x="225" y="216" type="curve" smooth="yes"/>
      <point x="185" y="297"/>
      <point x="145" y="378"/>
      <point x="145" y="461" type="curve" smooth="yes"/>
      <point x="145" y="575"/>
      <point x="241" y="655"/>
      <point x="360" y="655" type="curve" smooth="yes"/>
      <point x="483" y="655"/>
      <point x="576" y="573"/>
      <point x="576" y="461" type="curve" smooth="yes"/>
      <point x="576" y="383"/>
      <point x="541" y="308"/>
      <point x="503" y="228" type="curve" smooth="yes"/>
      <point x="461" y="142"/>
      <point x="433" y="80"/>
      <point x="432" y="0" type="curve"/>
      <point x="677" y="0" type="line"/>
    </contour>
  </outline>
</glyph>
<glyph name="Delta" format="2">
  <advance width="833"/>
  <unicode hex="2206"/>
  <outline>
    <contour>
      <point x="461" y="694" type="line"/>
      <point x="371" y="694" type="line"/>
      <point x="42" y="0" type="line"/>
      <point x="790" y="0" type="line"/>
    </contour>
    <contour>
      <point x="301" y="388" type="line" smooth="yes"/>
      <point x="357" y="508"/>
      <point x="393" y="585"/>
      <point x="405" y="625" type="curve"/>
      <point x="409" y="612"/>
      <point x="416" y="591"/>
      <point x="470" y="474" type="curve" smooth="yes"/>
      <point x="652" y="83" type="line"/>
      <point x="158" y="83" type="line"/>
    </contour>
  </outline>
</glyph>
<glyph name="dotlessj" format="2">
  <advance width="266"/>
  <outline>
    <contour>
      <point x="184" y="444" type="line"/>
      <point x="109" y="444" type="line"/>
      <point x="109" y="-69" type="line" smooth="yes"/>
      <point x="109" y="-136"/>
      <point x="52" y="-141"/>
      <point x="34" y="-141" type="curve" smooth="yes"/>
      <point x="6" y="-141"/>
      <point x="-18" y="-131"/>
      <point x="-40" y="-110" type="curve"/>
      <point x="-61" y="-171" type="line"/>
      <point x="-13" y="-199"/>
      <point x="33" y="-205"/>
      <point x="59" y="-205" type="curve" smooth="yes"/>
      <point x="122" y="-205"/>
      <point x="184" y="-153"/>
      <point x="184" y="-59" type="curve" smooth="yes"/>
    </contour>
  </outline>
</glyph>
<glyph name="fi" format="2">
  <advance width="536"/>
  <outline>
    <contour>
      <point x="457" y="695" type="line"/>
      <point x="374" y="695" type="line"/>
      <point x="374" y="612" type="line"/>
      <point x="457" y="612" type="line"/>
    </contour>
    <contour>
      <point x="453" y="444" type="line"/>
      <point x="378" y="444" type="line"/>
      <point x="378" y="0" type="line"/>
      <point x="453" y="0" type="line"/>
    </contour>
    <contour>
      <point x="176" y="386" type="line"/>
      <point x="294" y="386" type="line"/>
      <point x="294" y="444" type="line"/>
      <point x="173" y="444" type="line"/>
      <point x="173" y="565" type="line" smooth="yes"/>
      <point x="173" y="629"/>
      <point x="209" y="644"/>
      <point x="234" y="644" type="curve" smooth="yes"/>
      <point x="255" y="644"/>
      <point x="277" y="637"/>
      <point x="294" y="626" type="curve"/>
      <point x="294" y="694" type="line"/>
      <point x="288" y="696"/>
      <point x="263" y="705"/>
      <point x="234" y="705" type="curve" smooth="yes"/>
      <point x="160" y="705"/>
      <point x="101" y="635"/>
      <point x="101" y="535" type="curve" smooth="yes"/>
      <point x="101" y="444" type="line"/>
      <point x="27" y="444" type="line"/>
      <point x="27" y="386" type="line"/>
      <point x="101" y="386" type="line"/>
      <point x="101" y="0" type="line"/>
      <point x="176" y="0" type="line"/>
    </contour>
  </outline>
</glyph>
<glyph name="sfthyphen" format="2">
  <advance width="166"/>
  <outline>
    <contour>
      <point x="276" y="193" type="line"/>
      <point x="276" y="251" type="line"/>
      <point x="11" y="251" type="line"/>
      <point x="11" y="193" type="line"/>
    </contour>
  </outline>
</glyph>
<glyph name="suppress" format="2">
  <advance width="238"/>
  <outline>
    <contour>
      <point x="245" y="343" type="line"/>
      <point x="227" y="398" type="line"/>
      <point x="-7" y="321" type="line"/>
      <point x="11" y="266" type="line"/>
    </contour>
  </outline>
</glyph>
